<?xml version="1.0" encoding="UTF-8"?>
<svg width="190px" height="105px" viewBox="0 0 190 105" version="1.1" xmlns="http://www.w3.org/2000/svg" xmlns:xlink="http://www.w3.org/1999/xlink">
    <!-- Generator: Sketch 46.2 (44496) - http://www.bohemiancoding.com/sketch -->
    <title>logo</title>
    <desc>Created with Sketch.</desc>
    <defs></defs>
    <g id="Symbols" stroke="none" stroke-width="1" fill="none" fill-rule="evenodd">
        <g id="header" transform="translate(-12.000000, -6.000000)">
            <g id="logo" transform="translate(15.000000, 7.000000)">
                <g id="台南" transform="translate(93.000000, 2.363636)">
                    <g id="border" stroke="#FFFFFF" stroke-width="6" fill="#FFFFFF">
                        <path d="M77.459564,26.5972868 C77.8805907,27.0640819 78.329524,27.561415 78.8803773,28.1750833 C79.0550973,28.8178354 78.642564,29.4518624 78.4362973,30.1396944 C78.456924,30.2065872 78.4629907,30.2982012 78.5030307,30.3403727 C79.3365907,31.228883 79.2880573,31.5924306 78.322244,32.1944654 C77.5384307,32.6816191 76.8322707,33.4552484 76.0084173,33.7053691 C74.8994307,34.0412871 74.285484,35.2657154 73.1522307,35.5667328 C72.498244,35.7383272 71.8260573,36.4203425 71.4074573,37.0921784 C70.958524,37.8076401 70.561764,38.6946962 70.649124,39.6951792 C70.6988707,40.2797637 70.9233373,40.4862587 71.402604,40.4760794 C71.4341507,40.4760794 71.4656973,40.4688084 71.4960307,40.4644458 C72.006844,40.3960989 72.643844,40.0732686 72.9981373,40.3219352 C73.521084,40.6912995 73.968804,40.3568358 74.438364,40.4397246 C75.089924,40.5531515 75.7827373,40.2754011 76.4609907,40.2317754 C76.8577507,40.2056 77.259364,40.3335687 77.659764,40.3466564 C77.998284,40.35829 78.3465107,40.3452022 78.6813907,40.2754011 C79.4203107,40.1183485 80.160444,39.7329881 80.8872307,39.7766138 C82.0508173,39.8478691 83.1246173,39.3548986 84.2530173,39.2807349 C84.4398707,39.2676472 84.6242973,39.205117 84.808724,39.1585829 C84.899724,39.1324075 85.016204,39.0262516 85.0720173,39.0640605 C85.8267107,39.5584853 86.799804,39.3127271 87.4756307,40.0805396 C87.6321507,40.2579508 87.8214307,40.5109799 88.001004,40.5182509 C88.6549907,40.5400637 88.9922973,41.0533929 89.3854173,41.5550886 C89.5783373,41.7993926 89.919284,41.879373 90.192284,42.0335172 C90.4203907,42.8275051 90.650924,43.6345808 90.8608307,44.3660385 C90.680044,44.9462605 90.516244,45.5104863 90.3330307,46.065987 C90.0952173,46.7843571 89.8513373,47.5012729 89.595324,48.2109178 C89.3939107,48.7678727 89.4800573,49.4571589 89.031124,49.9123205 C88.9704573,49.9733965 89.0687373,50.2584178 89.0917907,50.4387374 C89.1560973,50.947704 89.2980573,51.4653958 89.2665107,51.9656373 C89.1755107,53.4547282 89.4108973,54.9539984 89.264084,56.4110971 C89.1633773,57.4450265 89.2034173,58.4687765 89.1196973,59.4910723 C89.1124173,59.6001365 89.0990707,59.748464 89.0396173,59.80954 C88.6028173,60.260339 88.6149507,60.9539877 88.3783507,61.5036717 C87.6612707,63.1585403 87.5435773,65.0475336 86.8786707,66.7256692 C86.534084,67.5938208 86.0378307,68.3630875 85.747844,69.2399643 C85.5209507,69.9365215 84.9349107,70.1691919 84.6388573,70.7712267 C84.528444,70.9951721 84.0067107,70.9297335 83.6050973,71.0111681 C83.472844,71.2205716 83.305404,71.4866884 83.1403907,71.7528052 C83.039684,71.7615304 82.9098573,71.8182438 82.857684,71.7673471 C82.395404,71.300552 81.6807507,71.2656515 81.390764,70.4934764 C81.332524,70.3364238 81.0934973,70.246264 80.9224173,70.192459 C80.5596307,70.0761238 80.185924,70.0063226 79.7576173,69.9016209 C79.578044,68.8080698 78.9034307,68.1711344 78.1535907,67.6127253 C77.7628973,67.3247956 77.379484,67.0644956 77.0615907,66.6078798 C76.855324,66.3126792 76.312964,66.3519423 75.7948707,66.2050691 C75.7354173,66.0960048 75.6080173,65.8560634 75.3981107,65.4648862 C76.0047773,65.3761806 76.502244,65.3034711 77.0858573,65.2220364 C77.081004,65.2249448 77.1635107,65.1638688 77.219324,65.0766174 C77.6949507,64.3291635 78.1790707,63.7809338 79.0914973,63.6864114 C79.745484,63.6195186 80.3509373,62.8982402 81.0401107,62.4270826 C81.1189773,61.8846696 81.110484,61.2128336 81.6722573,60.8551028 C81.772964,60.7911184 81.8105773,60.5351809 81.838484,60.3592239 C82.0010707,59.3354739 82.184284,58.3131781 82.2995507,57.2807029 C82.3893373,56.4925318 82.3383773,55.6825478 82.6380707,54.9307314 C82.6878173,54.8071252 82.591964,54.5889966 82.5434307,54.4246731 C82.5143107,54.3257882 82.3796307,54.2167239 82.3978307,54.1658272 C82.8443373,52.8992275 82.2801373,51.5177466 82.708444,50.2467843 C82.7618307,50.0897317 82.7290707,49.8875993 82.7205773,49.7072797 C82.664764,48.5192061 82.5871107,47.3311326 82.5507107,46.1416049 C82.5276573,45.3083539 82.6004573,44.4678319 82.537364,43.6403975 C82.519164,43.414998 82.1636573,43.0601756 81.9573907,43.0529047 C81.1747907,43.0281834 80.382484,43.0587214 79.607164,43.185236 C78.493324,43.3670098 77.3964707,43.6912942 76.2826307,43.8817931 C75.5437107,44.0112161 74.951604,44.4954615 74.4189507,45.0000655 C73.6618307,45.7198897 73.1303907,46.7450939 72.2713507,47.3791209 C72.0129107,47.5696199 71.941324,48.120758 71.7217107,48.663171 C72.1621507,48.8478532 72.4666973,48.9729135 72.7700307,49.1023365 C73.113404,49.2492097 73.488324,49.3437321 73.790444,49.5734941 C74.172644,49.8614238 74.2830573,50.3354899 74.107124,50.8648152 C73.9930707,51.215275 73.8753773,51.5642807 73.7637507,51.8958361 C73.033324,52.3393642 72.3150307,52.7770755 71.533644,53.2511415 C72.0201907,54.1396518 72.294404,55.049975 73.240804,55.2899164 C73.5914573,55.378622 73.8765907,55.8468713 74.2430173,56.188606 C73.6023773,57.5191902 73.069724,58.8206905 72.0893507,59.7877271 C72.1075507,59.9346003 72.1208973,60.0800194 72.1439507,60.2239842 C72.287124,61.1430325 72.4157373,62.0184551 72.1172573,62.9811291 C71.810284,63.9685243 71.7435507,65.0649838 71.5542707,66.1076383 C71.4511373,66.6776809 71.584604,67.3596962 71.0410307,67.7436025 C70.9779373,67.7886824 70.9500307,67.9428265 70.940324,68.0504366 C70.8214173,69.3359409 70.5265773,70.5036557 69.5741107,71.2932811 C69.404244,71.4343375 69.338724,71.7382633 69.1943373,71.9360332 C69.040244,72.1454366 68.8497507,72.3184853 68.6701773,72.5133468 C68.381404,72.293764 68.144804,72.117807 67.788084,71.8458734 C67.788084,70.9966262 67.8014307,70.0761238 67.7856573,69.1599838 C67.7710973,68.1667718 67.6764573,67.1910101 67.5344973,66.2036149 C67.424084,65.432894 67.4143773,64.5865552 67.402244,63.7765712 C67.3937507,63.2472459 67.4337907,62.7542754 66.9702973,62.5550513 C66.499524,62.3500105 66.1148973,62.6044938 65.866164,63.1338191 C65.837044,63.1948951 65.7763773,63.2341582 65.698724,63.3185012 C65.0386707,63.1730822 64.4271507,63.3563102 63.744044,63.6253354 C62.834044,63.9830662 61.7760173,63.9132651 60.7944307,63.8303762 C60.4765373,63.8042008 60.1343773,63.202166 59.9135507,62.7804508 C59.6587507,62.2918429 59.5264973,61.7116209 59.2898973,61.0266973 C59.5374173,60.2196216 60.2993907,60.0916529 61.0261773,59.9389629 C61.4860307,59.8415321 61.982284,59.9389629 62.2492173,59.2918482 C62.3013907,59.168242 62.524644,59.0940783 62.6714573,59.0853532 C63.6773107,59.0344565 64.4453507,58.2375602 65.3517107,57.8812836 C65.7654573,57.71696 66.1597907,57.4857438 66.575964,57.3461415 C67.0467373,57.1861806 67.1304573,56.8240872 67.081924,56.2453194 C66.6329907,56.2453194 66.2022573,56.1784267 65.7957907,56.2656781 C65.4305773,56.3442044 65.0556573,56.272949 64.7110707,56.731019 C64.228164,57.3752253 63.511084,57.3374164 62.2674173,56.9433308 C62.1266707,56.4387267 61.9264707,55.9166724 61.8391107,55.3698968 C61.7032173,54.530829 61.800284,53.7586539 62.3923907,53.1275353 C63.1228173,52.3509977 63.0548707,51.5933645 62.2601373,50.8459107 C62.1375907,50.7324838 62.015044,50.6016067 61.9301107,50.4460083 C61.1511507,49.0136309 60.0664307,49.5080556 59.0144707,49.7669015 C58.578884,49.8730574 58.280404,50.2627804 57.909124,50.4780005 C57.061004,50.9695169 56.2043907,50.6365073 55.4035907,50.2249714 C54.6246307,49.8250691 54.3043107,49.9952093 54.2169507,50.9767878 C54.196324,51.192008 54.178124,51.4246784 54.098044,51.6151774 C53.588444,52.8352431 53.7510307,54.0756674 54.0021907,55.317546 C54.1429373,56.012649 54.2484973,56.700481 54.1878307,57.4304846 C54.149004,57.8972797 54.2169507,58.3946127 54.3103773,58.8584995 C54.5991507,60.3039647 54.927964,61.7407047 55.230084,63.1832615 C55.2676973,63.3606728 55.284684,63.5729846 55.2434307,63.7460332 C55.0019773,64.8003212 55.2931773,65.8080751 55.4072307,67.0586788 C55.3817507,67.0761291 55.2458573,67.1808308 55.102684,67.2579029 C54.2193773,67.7261522 54.218164,67.724698 54.4122973,68.771715 C54.138084,69.1788883 53.835964,69.0974537 53.632124,68.7368145 C53.0084707,67.6287214 52.485524,66.4610066 52.3023107,65.1086096 C52.2549907,64.7625123 52.121524,64.3626099 51.914044,64.1372104 C51.5876573,63.782388 51.571884,63.4202946 51.5585373,62.9375034 C51.535484,62.0606266 51.3219373,61.1866582 51.320724,60.3126898 C51.3195107,59.6946589 51.2685507,59.144975 50.9664307,58.5618446 C51.5306307,57.5235527 51.0161773,56.4445435 50.9591507,55.3568091 C50.9433773,55.0674252 50.7904973,54.7053319 50.8863507,54.5046536 C51.2758307,53.6932154 51.065924,52.8003425 51.200604,51.9583663 C51.2467107,51.6762534 51.2321507,51.2952555 51.1035373,51.0800353 C50.931244,50.7891973 50.9652173,50.6103319 51.029524,50.2933184 C51.0938307,49.9821216 50.931244,49.6054863 50.858444,49.2157633 C51.218804,48.6268162 51.6798707,48.1294831 52.3957373,48.0858574 C52.518284,48.0785865 52.6359773,47.9084462 52.7536707,47.8066529 C52.8762173,47.6975886 52.9854173,47.4983645 53.1176707,47.4780059 C54.054364,47.3296784 54.716844,46.5153319 55.5297773,46.0718038 C55.7081373,45.974373 55.8682973,45.7387942 55.961724,45.5221199 C56.1898307,44.9898862 56.493164,44.6059799 56.9979107,44.5696252 C57.1714173,43.5851383 57.2733373,43.445536 57.989204,43.3713723 C58.677164,43.2986628 59.368764,43.2564913 60.0591507,43.2288617 C60.406164,43.2128656 60.6670307,43.0718091 60.8296173,42.6937196 C61.0188973,42.2516458 61.3440707,42.0771429 61.7396173,41.9869831 C62.040524,41.9186362 62.353564,41.8052093 62.612004,41.6161646 C62.9274707,41.3864025 63.216244,41.3965819 63.576604,41.3994902 C64.4332173,41.4067612 65.2243107,41.0403052 65.858884,40.2957598 C66.1258173,39.9816547 66.1148973,39.6122903 65.9814307,39.2487427 C65.8418973,38.8721074 65.5688973,38.8662907 65.258284,38.9055538 C64.9573773,38.9448169 64.643124,38.9157331 64.3397907,38.8779242 C63.583884,38.7892186 62.826764,38.8212108 62.0720707,38.8008521 C61.221524,38.7790392 60.326084,38.5929029 59.7339773,37.8672619 C59.3590573,37.4077377 59.008404,37.1023578 58.4599773,36.9860225 C58.4611907,35.9913564 57.3825373,35.377688 58.0013373,34.2041564 C57.497804,34.0311078 57.0658573,33.994753 56.9093373,33.3578176 C56.6363373,32.2584498 56.8219773,31.7233077 57.934604,31.0209338 C58.2816173,30.8028052 58.6541107,30.4974252 59.0824173,30.8406142 C59.1297373,30.8784231 59.204964,30.8784231 59.2656307,30.8755147 C60.2908973,30.808622 61.3149507,30.7417292 62.339004,30.6733823 C62.648404,30.6515694 62.9602307,30.6588404 63.2659907,30.6079437 C63.6336307,30.5454135 64.148084,30.5832225 64.3349373,30.3141973 C64.7790173,29.6758077 65.3553507,29.6452697 65.9231907,29.5362054 C66.412164,29.4460456 66.6657507,29.2177377 66.6463373,28.5895275 C66.637844,28.3394068 66.681524,28.0500229 66.7858707,27.8391653 C67.1195373,27.1731461 66.961804,26.4867683 66.623284,26.0461486 C66.142804,25.4237551 65.9365373,24.6646678 65.582244,23.9375726 C65.7945773,23.123226 66.011764,22.2812498 66.2507907,21.3636557 C66.7749507,21.32003 67.2724173,21.3098507 67.758964,21.2255076 C68.017404,21.1804277 68.2988973,21.0713635 68.501524,20.8837729 C69.3435773,20.1057811 70.3931107,20.1784906 71.0907773,21.1280769 C71.3176707,21.4378194 71.4996707,21.7940961 71.766604,22.0514877 C72.0662973,23.1014132 72.0201907,24.2836699 72.2203907,25.4164842 C72.3247373,26.0127022 72.592884,26.5929242 72.8792307,27.1091618 C73.1049107,27.5177892 73.557484,27.4668926 73.815924,27.1920506 C74.4614173,26.507127 75.2585773,26.8095985 75.9720173,26.6190996 C76.4136707,26.5013102 76.895364,26.5972868 77.459564,26.5972868" id="Fill-1"></path>
                        <path d="M24.1416933,35.2556815 C24.7143867,35.443272 25.2713067,35.290582 25.73844,34.6376506 C25.88404,34.4355181 26.1837333,34.266832 26.3997067,34.2842823 C27.4540933,34.3628086 27.9831067,33.3550547 28.6880533,32.7413864 C29.0569067,32.4200103 29.1479067,31.8121587 28.9901733,31.3046463 C28.81788,30.7476914 28.3458933,30.7971339 27.9321467,30.8291261 C27.7780533,30.8407596 27.6227467,30.8814769 27.4722933,30.9251026 C26.15704,31.3002837 25.0893067,32.2934957 23.90752,32.9958697 C23.8056,33.0569457 23.7522133,33.2256317 23.6697067,33.3390586 C23.4719333,33.6124464 23.2329067,33.8567504 23.0824533,34.1635845 C22.9708267,34.3933466 22.8980267,34.7278104 22.9526267,34.9662976 C22.9878133,35.1102624 23.2935733,35.1960597 23.4901333,35.2469563 C23.6697067,35.2920362 23.86384,35.2556815 24.1416933,35.2556815" id="Fill-4"></path>
                        <path d="M6.86989333,47.0200813 C6.96938667,47.0346232 7.09678667,47.1000618 7.14774667,47.0491651 C7.88788,46.3322493 8.91193333,46.399142 9.67026667,45.7084016 C9.95904,45.4466474 10.35216,45.3535792 10.6918933,45.1703512 C11.20028,44.8984176 11.7814667,44.832979 12.1927867,44.2818409 C12.3044133,44.1335135 12.6150267,44.2236733 12.80916,44.1306051 C13.3563733,43.8630341 13.8878133,43.5518374 14.4301733,43.2697244 C14.68376,43.1373931 14.9409867,42.9657987 15.2103467,42.9250813 C15.9225733,42.8189254 16.6432933,42.7840249 17.35916,42.6996818 C17.5751333,42.6735064 17.7947467,42.6007969 17.9973733,42.5062745 C18.80424,42.1383643 19.6062533,41.7573665 20.4070533,41.3690977 C20.5465867,41.3007507 20.67156,41.1815071 20.7637733,41.1146143 C20.5708533,40.4035153 20.1935067,40.4049695 19.8113067,40.3642521 C18.8175867,40.256642 17.8202267,40.1679364 16.8374267,39.9759833 C16.4831333,39.9061822 16.21984,39.5368178 16.08152,39.0627518 C15.8983067,38.4359957 15.64472,37.8368693 15.36808,37.0821445 C15.4105467,36.978897 15.4760667,36.6662461 15.6350133,36.4582969 C16.2028533,35.7166598 16.8180133,35.0288278 17.3822133,34.2828281 C17.5836267,34.0138029 17.6928267,33.6429844 17.8481333,33.3128832 C18.6319467,32.8824428 19.4242533,32.4447315 20.2845067,31.9721197 C20.4568,31.7030945 20.49684,31.2973754 20.2202,31.0370753 C19.9993733,30.8262177 19.6329467,30.6386271 19.383,30.7084283 C18.5142533,30.9454613 17.53024,30.928011 16.9490533,31.9764822 C16.0657467,32.257141 15.3850667,33.2837994 14.36708,33.0467663 C13.9545467,32.952244 13.56264,32.731207 13.16588,32.5523416 C13.0858,32.5130785 13.0360533,32.3560259 12.9559733,32.3327589 C12.03384,32.0768214 12.0350533,31.2348452 12.1345467,30.392869 C12.2146267,29.728304 12.3602267,29.0681016 12.5373733,28.429712 C12.7096667,27.8015018 13.0676,27.2881726 13.60996,27.1122156 C14.2336133,26.9115373 14.6594933,26.4723718 15.0125733,25.6972884 C15.7260133,25.8441616 16.4467333,26.076832 17.1759467,26.1204577 C18.22184,26.1844421 19.2762267,26.3865746 20.3245467,25.9517717 C20.7455733,25.7758146 21.2478933,25.8746996 21.7138133,25.8601577 C22.4709333,25.8354364 22.46244,25.8368906 22.6565733,25.0239982 C22.74272,24.6619048 22.90288,24.3245327 22.97932,23.9609851 C23.19772,22.9256016 22.6784133,22.3119332 21.80724,22.4762567 C20.8838933,22.6478512 19.9484133,22.7234691 19.0287067,22.9081513 C18.6780533,22.9779524 18.35288,23.2295273 17.9476267,23.4345682 C16.54016,22.7191065 15.0514,21.9614734 13.5104667,21.1776648 C13.7106667,20.2455288 13.4837733,19.4704453 12.9268533,18.8175138 C12.84192,18.7186289 12.7739733,18.5688473 12.75092,18.4306992 C12.5737733,17.290614 12.5774133,17.2891598 12.1345467,16.6493161 C12.7060267,16.2712266 13.34424,15.992022 13.8162267,15.4917805 C14.1244133,15.1674961 14.44352,15.0278938 14.7868933,14.8911999 C14.9579733,14.8243072 15.1945733,14.7894066 15.3377467,14.8795664 C15.82308,15.1878548 16.2465333,14.9420966 16.69304,14.7748647 C17.3166933,14.5407401 17.9464133,14.3313366 18.63316,14.0899411 C18.5045467,13.4573683 18.7617733,13.0531033 19.23376,13.0792788 C20.0612533,13.1243587 20.4689333,12.6851932 20.5016933,11.7923203 C21.1144267,11.4709442 21.55244,11.7661449 22.0062267,12.0322617 C22.8434267,12.5266864 23.2753733,12.2925618 23.33968,11.1699268 C23.4585867,9.12242685 23.6054,8.10449361 22.48428,5.86794886 C22.6226,4.73804297 23.1164267,3.68375497 22.9866,2.49277308 C22.9417067,2.07687464 23.1224933,1.81657457 23.41612,1.57517898 C23.92936,1.15928054 24.39892,0.664855824 24.9461333,0.145709872 C27.12528,-0.0869605824 27.12528,-0.0869605824 28.5388133,1.3454169 C28.50848,2.09432493 28.8785467,2.86795419 28.5254667,3.70265945 C28.4381067,3.91351705 28.6674267,4.31778196 28.7390133,4.58826136 C28.51576,5.36916158 28.26824,6.1035277 28.1020133,6.86261506 C27.8217333,8.14084837 28.4526667,9.12824361 29.5446667,9.16459837 C29.85528,9.17186932 30.16832,9.0991598 30.4789333,9.05262571 C30.72888,9.01772514 30.9751867,8.94792401 31.2251333,8.92901953 C31.3768,8.91738601 31.5308933,8.97119105 31.6631467,8.99009553 C31.9046,9.8073505 31.9046,9.8073505 31.71896,11.5087532 C32.0744667,11.6876186 32.4590933,11.8839343 32.9250133,12.1180589 C32.8607067,12.4830607 32.89832,12.9920273 32.7138933,13.1679844 C32.1654667,13.6856761 32.5428133,14.6018161 32.0295733,15.1165994 C31.91188,15.2372972 31.9761867,15.6153867 31.9494933,15.9789343 C31.23484,16.6973043 30.4752933,17.4680252 29.7048267,18.2242042 C29.5398133,18.3885277 29.3481067,18.52813 29.1515467,18.6328317 C28.76328,18.8407809 28.4878533,19.131619 28.3058533,19.6245895 C28.1784533,19.9692326 27.90788,20.2833377 27.63852,20.5014663 C27.0282133,20.9900742 26.9493467,21.1471268 27.1301333,22.0719918 C27.1968667,22.4122724 27.1046533,22.8747049 27.6433733,22.9415977 C27.7283067,22.7089272 27.8229467,22.4544439 27.8957467,22.2552198 C28.6225333,21.8335046 29.3214133,21.4263313 30.0239333,21.0278832 C30.1052267,20.9813491 30.2059333,20.9595362 30.2981467,20.9609904 C31.4083467,20.9697156 32.3256267,20.2847919 33.29872,19.7874588 C33.6797067,19.5911431 34.1080133,19.5271587 34.64552,19.3628352 C34.20508,21.3914308 33.3921467,22.7481903 31.8779067,23.433114 C31.5612267,23.5770788 31.2760933,23.822837 30.9776133,24.0235153 C30.6754933,24.2256477 30.38308,24.5761076 30.07004,24.602283 C29.37116,24.6575423 29.0010933,25.2566687 28.5109067,25.6812923 C27.9867467,26.1364538 27.41284,26.5058182 26.80132,26.9595256 C26.8365067,28.0501683 26.2504667,28.5576808 25.4156933,28.8383395 C25.06504,28.9546747 24.74472,29.2033413 24.3892133,29.4025653 C24.5311733,30.0293214 24.8599867,30.0584052 25.207,29.9071694 C25.4702933,29.7937425 25.70204,29.5843391 25.9507733,29.4200156 C26.7722,28.8834194 27.5996933,28.6725618 28.5533733,28.9779418 C29.1284933,29.1597156 29.77884,29.0099339 30.45588,29.0099339 C30.7737733,29.4927251 31.1499067,30.0685845 31.57336,30.7098825 C30.8829733,31.4980536 30.7191733,32.6105092 30.5092667,33.6895185 C29.82252,34.2900991 29.00716,34.7467148 28.89068,35.93188 C28.88704,35.9653263 28.86884,36.0176772 28.8457867,36.0293107 C28.1614667,36.3608661 27.9382133,37.2290178 27.43104,37.7554347 C26.87048,38.3342024 26.2274133,38.6730288 25.4375333,38.5421516 C25.0444133,38.4767131 24.6221733,38.5392433 24.2290533,38.6381282 C23.7594933,38.7573718 23.5847733,39.0976523 23.6939733,39.5164592 C23.8153067,39.9832543 24.12228,40.2057454 24.4947733,40.1054063 C25.9483467,39.714229 27.4638,39.6429737 28.84336,38.8693445 C29.0338533,38.7631886 29.2753067,38.6861165 29.4779333,38.7239254 C30.45588,38.9013366 31.39136,38.5945025 32.3401867,38.430179 C33.29872,38.2629471 34.25604,38.0826275 35.217,37.9328459 C35.4293333,37.8993995 35.65744,37.9270291 35.86856,37.9822884 C36.8343733,38.2440426 37.7965467,38.5247013 38.78784,38.8053601 C38.7672133,39.9076364 39.5510267,39.7098665 40.10188,39.8567397 C40.5483867,40.5881974 40.7134,41.4883413 41.37952,42.0322085 C41.79084,42.3695806 41.7144,43.5300245 41.36496,43.9866403 C41.15748,44.2585739 40.9439333,44.5246907 40.7522267,44.8111662 C40.3251333,45.4568267 39.8373733,45.8989006 39.0911733,45.871271 C38.4748,45.8480039 37.8511467,46.199918 37.1813867,45.7156726 C37.2056533,45.1020043 36.8210267,44.9405891 36.3259867,44.755907 C35.1539067,44.3196499 34.0315733,44.481065 32.8789067,44.8242539 C32.24676,45.0118445 31.5782133,45.023478 30.9302933,45.1470842 C30.72524,45.1848931 30.5383867,45.344854 30.33576,45.4117468 C30.2168533,45.4524641 30.08096,45.4190178 29.7885467,45.4190178 C30.57236,44.3981761 31.2955067,43.5998256 32.15212,42.9919741 C32.71996,42.5891634 33.0487733,41.9813118 33.3812267,41.1771445 C33.1106533,41.1160685 32.9140933,41.0215462 32.7260267,41.0419048 C32.2334133,41.0913473 31.74808,41.2309496 31.2542533,41.264396 C29.8285867,41.3531016 28.4004933,41.4039982 26.9736133,41.4810703 C26.30264,41.5188793 25.7445067,41.9405945 25.1390533,42.2285241 C24.1380533,42.7025902 23.387,43.785962 22.19672,43.8295877 C21.658,43.8484922 21.1204933,44.2236733 20.5975467,44.4839734 C19.15004,45.2037976 17.7328667,46.0268693 16.2586667,46.6594421 C14.9798133,47.2091261 13.84292,48.0714609 12.5846933,48.7142131 C12.5216,49.0035969 12.45972,49.2857099 12.4306,49.423858 C11.8312133,49.8702944 11.3386,50.2600174 10.8241467,50.6075689 C10.6130267,50.7500795 10.34852,50.7806175 10.1179867,50.8940444 C9.80494667,51.0467344 9.36572,51.1339858 9.21890667,51.4219155 C8.84277333,52.1664609 8.27250667,52.3409638 7.63793333,52.4471197 C7.45714667,52.7728583 7.28485333,53.0826009 7.07858667,53.4519652 C6.06788,53.3152713 5.63957333,54.4451772 4.90308,54.962869 C4.58761333,55.1824517 4.31461333,55.5154613 3.98337333,55.6725138 C3.32453333,55.9909815 2.59532,56.124767 2.275,56.9143924 C1.82242667,56.704989 1.53850667,56.552299 1.24366667,56.4417805 C0.681893333,56.2323771 0.485333333,55.7466776 0.43316,55.0908377 C0.4004,54.6720309 0.293626667,54.260495 0.191706667,53.6889982 C0.344586667,53.2876417 0.576333333,52.7539538 0.388266667,52.0501257 C0.228106667,51.4524535 0.492613333,51.0220131 1.02890667,50.7486254 C1.55670667,50.4796001 2.02990667,50.1887621 2.18036,49.4296747 C2.22646667,49.1955501 2.43758667,49.0094137 2.57226667,48.8000103 C2.68632,48.6225991 2.91685333,48.423375 2.89744,48.2677766 C2.78338667,47.3269155 3.47013333,47.0564361 3.84869333,46.5314734 C3.88873333,46.4762141 3.93484,46.375875 3.97488,46.3787834 C4.75990667,46.4311342 5.2598,45.6676843 6.03026667,45.3274038 C6.29477333,45.8596374 6.56049333,46.3933253 6.86989333,47.0200813" id="Path"></path>
                        <path d="M19.757556,72.6471323 C19.3984093,73.3509604 18.9773827,73.6068979 18.4495827,73.7014203 C17.893876,73.8017594 17.3503027,73.98935 16.7970227,74.1027768 C16.6223027,74.1376774 16.3966227,74.127498 16.2570893,74.019888 C15.815436,73.6854242 15.4029027,73.2957012 15.0352627,72.9786877 C15.1517427,71.491051 15.6492093,70.3669618 16.252236,69.2952235 C16.6538493,68.5826703 17.103996,67.9050176 17.4631427,67.1633805 C17.6148093,66.8492754 17.5856893,66.4115641 17.653636,65.9098684 C16.3966227,66.1410847 15.724436,64.9093855 14.712516,64.6985279 C14.450436,64.6432686 14.177436,64.4760368 13.9711693,64.2724501 C13.332956,63.6471483 13.3632893,63.3592186 14.1131293,62.7440961 C14.0706627,62.4488954 14.024556,62.1289735 13.977236,61.8090517 C16.1005693,60.4421127 18.0807293,58.7668855 20.4394493,57.9728975 C20.4261027,57.8914629 20.4139693,57.8056657 20.3994093,57.7227768 C19.764836,57.6529757 19.127836,57.5846287 18.3646493,57.5002857 C18.316116,57.2588901 18.137756,56.8967967 18.2190493,56.6655804 C18.381636,56.2060563 18.4556493,55.5385829 18.974956,55.4571483 C19.8643293,55.3160918 20.106996,54.2516245 20.7609827,53.77465 C21.0267027,53.5826969 20.976956,53.05628 20.7888893,52.2375708 C20.4430893,52.0616138 20.092436,51.7795009 19.6896093,52.1939451 C19.6240893,52.2608379 19.480916,52.33791 19.4348093,52.3015552 C18.6849693,51.6980662 17.4946893,52.1110563 17.042116,50.8182811 C16.9717427,50.6205112 16.8649693,50.4387374 16.758196,50.2089753 C17.173156,49.6912836 17.8404893,49.3480946 17.4109693,48.4203212 C17.722796,48.3199821 17.8963027,48.24291 18.0734493,48.212372 C18.7031693,48.113487 19.3110493,47.9622512 19.833996,47.4838226 C19.9783827,47.3543997 20.172516,47.2656941 20.3533027,47.2366103 C21.952476,46.9995772 23.543156,46.4891564 25.170236,46.9937605 C25.2915693,47.0315694 25.421396,47.0577449 25.5463693,47.0446571 C26.458796,46.9385012 27.201356,47.2337019 27.6296627,48.4174128 C26.8713293,48.9787303 26.626236,50.3194938 25.541516,50.5376223 C25.122916,51.5919103 24.180156,51.9365534 23.5383027,52.6883699 C23.390276,52.8628727 23.324756,53.1362605 23.2204093,53.3645684 C22.909796,53.4910829 22.596756,53.6175975 22.2958493,53.7382953 C22.309196,54.286525 22.6125293,54.3519636 22.873396,54.4261273 C23.1779427,54.5104703 23.4982627,54.5162871 23.8040227,54.5933592 C24.8632627,54.8565676 25.7975293,55.9922903 25.9504093,57.2283521 C25.9758893,57.4275762 25.887316,57.6558841 25.821796,57.8565623 C25.6009693,58.5371234 25.304916,59.1944174 25.1581027,59.893883 C24.9979427,60.6515162 24.485916,61.0892275 24.1886493,61.7145293 C24.027276,62.0606266 23.765196,62.3514647 23.510396,62.6190357 C23.0287027,63.1280023 22.6137427,63.6427857 22.702316,64.5109373 C22.716876,64.6679899 22.5178893,64.974824 22.381996,65.0082704 C21.8129427,65.1507811 21.6236627,65.7586326 21.3166893,66.1977981 C21.1601693,66.4231976 21.0631027,66.8216458 21.1104227,67.1008503 C21.1783693,67.4949359 21.533876,67.5065694 21.8202227,67.4556728 C22.9947293,67.2477235 24.1971427,67.2840783 25.341316,66.8056497 C25.6919693,66.6616848 26.080236,66.571525 26.4490893,66.5802502 C27.117636,66.5977005 27.681836,66.3621216 28.264236,65.7368198 C28.1501827,65.3921767 28.020356,64.9995453 27.8978093,64.6287267 C28.0434093,64.2215534 28.286076,63.805655 28.315196,63.3708521 C28.337036,63.056747 28.085876,62.7062871 27.9305693,62.3907278 C27.8553427,62.239492 27.6769827,62.1507864 27.619956,61.995188 C27.4027693,61.3873365 27.2147027,60.7634888 27.052116,60.2559764 C27.106716,59.0708113 27.1564627,57.9569015 27.2110627,56.7571944 C27.3384627,56.4445435 27.492556,56.0024696 27.6915427,55.592388 C28.118636,54.7256905 28.5602893,53.8837143 29.534596,53.781921 C29.803956,53.7571998 30.1194227,53.6306852 30.3123427,53.4183734 C30.8098093,52.8715978 31.398276,52.7858006 32.0182893,52.7436291 C32.362876,52.7218162 32.7038227,52.64329 33.0314227,52.5938475 C33.7230227,52.9472157 33.2340493,53.66704 33.4245427,54.2618038 C33.5580093,54.3592346 33.7521427,54.4741156 33.924436,54.6253514 C34.3151293,54.9787196 34.641516,55.4353354 34.6390893,56.0257367 C34.630596,57.3926756 34.9594093,58.7828816 34.4692227,60.1236451 C34.4109827,60.283606 34.4243293,60.4813759 34.3927827,60.7504011 C33.527676,60.4421127 32.9113027,61.1357615 32.2112093,61.4687711 C31.6009027,61.7596092 31.4844227,62.1725993 31.682196,62.9185989 C31.8981693,63.7358539 32.0947293,64.5691049 32.391996,65.3456426 C32.5473027,65.7499075 32.9028093,66.0436539 33.298356,66.5569831 C33.298356,66.5657083 33.291076,66.8245542 33.3262627,67.0761291 C33.3578093,67.3117079 33.418476,67.5443784 33.4937027,67.7668695 C33.6271693,68.1522299 33.7812627,68.527411 33.906236,68.8560581 C33.4961293,69.2705023 33.1915827,69.5904242 32.876116,69.8899874 C32.6856227,70.070307 32.479356,70.2244512 32.2730893,70.375687 C32.1675293,70.4513049 31.9818893,70.4556674 31.9382093,70.5574608 C31.460156,71.6655538 30.5198227,71.5419476 29.7190227,71.7426259 C28.8041693,71.972388 27.871116,72.1047193 26.946556,72.2763137 C26.9150093,72.2835847 26.8822493,72.3024892 26.8531293,72.293764 C25.4626493,71.9447583 24.140116,72.683487 22.7666227,72.6500407 C21.7692627,72.6267736 20.7682627,72.6471323 19.757556,72.6471323" id="Fill-6"></path>
                    </g>
                    <path d="M77.459564,26.5972868 C77.8805907,27.0640819 78.329524,27.561415 78.8803773,28.1750833 C79.0550973,28.8178354 78.642564,29.4518624 78.4362973,30.1396944 C78.456924,30.2065872 78.4629907,30.2982012 78.5030307,30.3403727 C79.3365907,31.228883 79.2880573,31.5924306 78.322244,32.1944654 C77.5384307,32.6816191 76.8322707,33.4552484 76.0084173,33.7053691 C74.8994307,34.0412871 74.285484,35.2657154 73.1522307,35.5667328 C72.498244,35.7383272 71.8260573,36.4203425 71.4074573,37.0921784 C70.958524,37.8076401 70.561764,38.6946962 70.649124,39.6951792 C70.6988707,40.2797637 70.9233373,40.4862587 71.402604,40.4760794 C71.4341507,40.4760794 71.4656973,40.4688084 71.4960307,40.4644458 C72.006844,40.3960989 72.643844,40.0732686 72.9981373,40.3219352 C73.521084,40.6912995 73.968804,40.3568358 74.438364,40.4397246 C75.089924,40.5531515 75.7827373,40.2754011 76.4609907,40.2317754 C76.8577507,40.2056 77.259364,40.3335687 77.659764,40.3466564 C77.998284,40.35829 78.3465107,40.3452022 78.6813907,40.2754011 C79.4203107,40.1183485 80.160444,39.7329881 80.8872307,39.7766138 C82.0508173,39.8478691 83.1246173,39.3548986 84.2530173,39.2807349 C84.4398707,39.2676472 84.6242973,39.205117 84.808724,39.1585829 C84.899724,39.1324075 85.016204,39.0262516 85.0720173,39.0640605 C85.8267107,39.5584853 86.799804,39.3127271 87.4756307,40.0805396 C87.6321507,40.2579508 87.8214307,40.5109799 88.001004,40.5182509 C88.6549907,40.5400637 88.9922973,41.0533929 89.3854173,41.5550886 C89.5783373,41.7993926 89.919284,41.879373 90.192284,42.0335172 C90.4203907,42.8275051 90.650924,43.6345808 90.8608307,44.3660385 C90.680044,44.9462605 90.516244,45.5104863 90.3330307,46.065987 C90.0952173,46.7843571 89.8513373,47.5012729 89.595324,48.2109178 C89.3939107,48.7678727 89.4800573,49.4571589 89.031124,49.9123205 C88.9704573,49.9733965 89.0687373,50.2584178 89.0917907,50.4387374 C89.1560973,50.947704 89.2980573,51.4653958 89.2665107,51.9656373 C89.1755107,53.4547282 89.4108973,54.9539984 89.264084,56.4110971 C89.1633773,57.4450265 89.2034173,58.4687765 89.1196973,59.4910723 C89.1124173,59.6001365 89.0990707,59.748464 89.0396173,59.80954 C88.6028173,60.260339 88.6149507,60.9539877 88.3783507,61.5036717 C87.6612707,63.1585403 87.5435773,65.0475336 86.8786707,66.7256692 C86.534084,67.5938208 86.0378307,68.3630875 85.747844,69.2399643 C85.5209507,69.9365215 84.9349107,70.1691919 84.6388573,70.7712267 C84.528444,70.9951721 84.0067107,70.9297335 83.6050973,71.0111681 C83.472844,71.2205716 83.305404,71.4866884 83.1403907,71.7528052 C83.039684,71.7615304 82.9098573,71.8182438 82.857684,71.7673471 C82.395404,71.300552 81.6807507,71.2656515 81.390764,70.4934764 C81.332524,70.3364238 81.0934973,70.246264 80.9224173,70.192459 C80.5596307,70.0761238 80.185924,70.0063226 79.7576173,69.9016209 C79.578044,68.8080698 78.9034307,68.1711344 78.1535907,67.6127253 C77.7628973,67.3247956 77.379484,67.0644956 77.0615907,66.6078798 C76.855324,66.3126792 76.312964,66.3519423 75.7948707,66.2050691 C75.7354173,66.0960048 75.6080173,65.8560634 75.3981107,65.4648862 C76.0047773,65.3761806 76.502244,65.3034711 77.0858573,65.2220364 C77.081004,65.2249448 77.1635107,65.1638688 77.219324,65.0766174 C77.6949507,64.3291635 78.1790707,63.7809338 79.0914973,63.6864114 C79.745484,63.6195186 80.3509373,62.8982402 81.0401107,62.4270826 C81.1189773,61.8846696 81.110484,61.2128336 81.6722573,60.8551028 C81.772964,60.7911184 81.8105773,60.5351809 81.838484,60.3592239 C82.0010707,59.3354739 82.184284,58.3131781 82.2995507,57.2807029 C82.3893373,56.4925318 82.3383773,55.6825478 82.6380707,54.9307314 C82.6878173,54.8071252 82.591964,54.5889966 82.5434307,54.4246731 C82.5143107,54.3257882 82.3796307,54.2167239 82.3978307,54.1658272 C82.8443373,52.8992275 82.2801373,51.5177466 82.708444,50.2467843 C82.7618307,50.0897317 82.7290707,49.8875993 82.7205773,49.7072797 C82.664764,48.5192061 82.5871107,47.3311326 82.5507107,46.1416049 C82.5276573,45.3083539 82.6004573,44.4678319 82.537364,43.6403975 C82.519164,43.414998 82.1636573,43.0601756 81.9573907,43.0529047 C81.1747907,43.0281834 80.382484,43.0587214 79.607164,43.185236 C78.493324,43.3670098 77.3964707,43.6912942 76.2826307,43.8817931 C75.5437107,44.0112161 74.951604,44.4954615 74.4189507,45.0000655 C73.6618307,45.7198897 73.1303907,46.7450939 72.2713507,47.3791209 C72.0129107,47.5696199 71.941324,48.120758 71.7217107,48.663171 C72.1621507,48.8478532 72.4666973,48.9729135 72.7700307,49.1023365 C73.113404,49.2492097 73.488324,49.3437321 73.790444,49.5734941 C74.172644,49.8614238 74.2830573,50.3354899 74.107124,50.8648152 C73.9930707,51.215275 73.8753773,51.5642807 73.7637507,51.8958361 C73.033324,52.3393642 72.3150307,52.7770755 71.533644,53.2511415 C72.0201907,54.1396518 72.294404,55.049975 73.240804,55.2899164 C73.5914573,55.378622 73.8765907,55.8468713 74.2430173,56.188606 C73.6023773,57.5191902 73.069724,58.8206905 72.0893507,59.7877271 C72.1075507,59.9346003 72.1208973,60.0800194 72.1439507,60.2239842 C72.287124,61.1430325 72.4157373,62.0184551 72.1172573,62.9811291 C71.810284,63.9685243 71.7435507,65.0649838 71.5542707,66.1076383 C71.4511373,66.6776809 71.584604,67.3596962 71.0410307,67.7436025 C70.9779373,67.7886824 70.9500307,67.9428265 70.940324,68.0504366 C70.8214173,69.3359409 70.5265773,70.5036557 69.5741107,71.2932811 C69.404244,71.4343375 69.338724,71.7382633 69.1943373,71.9360332 C69.040244,72.1454366 68.8497507,72.3184853 68.6701773,72.5133468 C68.381404,72.293764 68.144804,72.117807 67.788084,71.8458734 C67.788084,70.9966262 67.8014307,70.0761238 67.7856573,69.1599838 C67.7710973,68.1667718 67.6764573,67.1910101 67.5344973,66.2036149 C67.424084,65.432894 67.4143773,64.5865552 67.402244,63.7765712 C67.3937507,63.2472459 67.4337907,62.7542754 66.9702973,62.5550513 C66.499524,62.3500105 66.1148973,62.6044938 65.866164,63.1338191 C65.837044,63.1948951 65.7763773,63.2341582 65.698724,63.3185012 C65.0386707,63.1730822 64.4271507,63.3563102 63.744044,63.6253354 C62.834044,63.9830662 61.7760173,63.9132651 60.7944307,63.8303762 C60.4765373,63.8042008 60.1343773,63.202166 59.9135507,62.7804508 C59.6587507,62.2918429 59.5264973,61.7116209 59.2898973,61.0266973 C59.5374173,60.2196216 60.2993907,60.0916529 61.0261773,59.9389629 C61.4860307,59.8415321 61.982284,59.9389629 62.2492173,59.2918482 C62.3013907,59.168242 62.524644,59.0940783 62.6714573,59.0853532 C63.6773107,59.0344565 64.4453507,58.2375602 65.3517107,57.8812836 C65.7654573,57.71696 66.1597907,57.4857438 66.575964,57.3461415 C67.0467373,57.1861806 67.1304573,56.8240872 67.081924,56.2453194 C66.6329907,56.2453194 66.2022573,56.1784267 65.7957907,56.2656781 C65.4305773,56.3442044 65.0556573,56.272949 64.7110707,56.731019 C64.228164,57.3752253 63.511084,57.3374164 62.2674173,56.9433308 C62.1266707,56.4387267 61.9264707,55.9166724 61.8391107,55.3698968 C61.7032173,54.530829 61.800284,53.7586539 62.3923907,53.1275353 C63.1228173,52.3509977 63.0548707,51.5933645 62.2601373,50.8459107 C62.1375907,50.7324838 62.015044,50.6016067 61.9301107,50.4460083 C61.1511507,49.0136309 60.0664307,49.5080556 59.0144707,49.7669015 C58.578884,49.8730574 58.280404,50.2627804 57.909124,50.4780005 C57.061004,50.9695169 56.2043907,50.6365073 55.4035907,50.2249714 C54.6246307,49.8250691 54.3043107,49.9952093 54.2169507,50.9767878 C54.196324,51.192008 54.178124,51.4246784 54.098044,51.6151774 C53.588444,52.8352431 53.7510307,54.0756674 54.0021907,55.317546 C54.1429373,56.012649 54.2484973,56.700481 54.1878307,57.4304846 C54.149004,57.8972797 54.2169507,58.3946127 54.3103773,58.8584995 C54.5991507,60.3039647 54.927964,61.7407047 55.230084,63.1832615 C55.2676973,63.3606728 55.284684,63.5729846 55.2434307,63.7460332 C55.0019773,64.8003212 55.2931773,65.8080751 55.4072307,67.0586788 C55.3817507,67.0761291 55.2458573,67.1808308 55.102684,67.2579029 C54.2193773,67.7261522 54.218164,67.724698 54.4122973,68.771715 C54.138084,69.1788883 53.835964,69.0974537 53.632124,68.7368145 C53.0084707,67.6287214 52.485524,66.4610066 52.3023107,65.1086096 C52.2549907,64.7625123 52.121524,64.3626099 51.914044,64.1372104 C51.5876573,63.782388 51.571884,63.4202946 51.5585373,62.9375034 C51.535484,62.0606266 51.3219373,61.1866582 51.320724,60.3126898 C51.3195107,59.6946589 51.2685507,59.144975 50.9664307,58.5618446 C51.5306307,57.5235527 51.0161773,56.4445435 50.9591507,55.3568091 C50.9433773,55.0674252 50.7904973,54.7053319 50.8863507,54.5046536 C51.2758307,53.6932154 51.065924,52.8003425 51.200604,51.9583663 C51.2467107,51.6762534 51.2321507,51.2952555 51.1035373,51.0800353 C50.931244,50.7891973 50.9652173,50.6103319 51.029524,50.2933184 C51.0938307,49.9821216 50.931244,49.6054863 50.858444,49.2157633 C51.218804,48.6268162 51.6798707,48.1294831 52.3957373,48.0858574 C52.518284,48.0785865 52.6359773,47.9084462 52.7536707,47.8066529 C52.8762173,47.6975886 52.9854173,47.4983645 53.1176707,47.4780059 C54.054364,47.3296784 54.716844,46.5153319 55.5297773,46.0718038 C55.7081373,45.974373 55.8682973,45.7387942 55.961724,45.5221199 C56.1898307,44.9898862 56.493164,44.6059799 56.9979107,44.5696252 C57.1714173,43.5851383 57.2733373,43.445536 57.989204,43.3713723 C58.677164,43.2986628 59.368764,43.2564913 60.0591507,43.2288617 C60.406164,43.2128656 60.6670307,43.0718091 60.8296173,42.6937196 C61.0188973,42.2516458 61.3440707,42.0771429 61.7396173,41.9869831 C62.040524,41.9186362 62.353564,41.8052093 62.612004,41.6161646 C62.9274707,41.3864025 63.216244,41.3965819 63.576604,41.3994902 C64.4332173,41.4067612 65.2243107,41.0403052 65.858884,40.2957598 C66.1258173,39.9816547 66.1148973,39.6122903 65.9814307,39.2487427 C65.8418973,38.8721074 65.5688973,38.8662907 65.258284,38.9055538 C64.9573773,38.9448169 64.643124,38.9157331 64.3397907,38.8779242 C63.583884,38.7892186 62.826764,38.8212108 62.0720707,38.8008521 C61.221524,38.7790392 60.326084,38.5929029 59.7339773,37.8672619 C59.3590573,37.4077377 59.008404,37.1023578 58.4599773,36.9860225 C58.4611907,35.9913564 57.3825373,35.377688 58.0013373,34.2041564 C57.497804,34.0311078 57.0658573,33.994753 56.9093373,33.3578176 C56.6363373,32.2584498 56.8219773,31.7233077 57.934604,31.0209338 C58.2816173,30.8028052 58.6541107,30.4974252 59.0824173,30.8406142 C59.1297373,30.8784231 59.204964,30.8784231 59.2656307,30.8755147 C60.2908973,30.808622 61.3149507,30.7417292 62.339004,30.6733823 C62.648404,30.6515694 62.9602307,30.6588404 63.2659907,30.6079437 C63.6336307,30.5454135 64.148084,30.5832225 64.3349373,30.3141973 C64.7790173,29.6758077 65.3553507,29.6452697 65.9231907,29.5362054 C66.412164,29.4460456 66.6657507,29.2177377 66.6463373,28.5895275 C66.637844,28.3394068 66.681524,28.0500229 66.7858707,27.8391653 C67.1195373,27.1731461 66.961804,26.4867683 66.623284,26.0461486 C66.142804,25.4237551 65.9365373,24.6646678 65.582244,23.9375726 C65.7945773,23.123226 66.011764,22.2812498 66.2507907,21.3636557 C66.7749507,21.32003 67.2724173,21.3098507 67.758964,21.2255076 C68.017404,21.1804277 68.2988973,21.0713635 68.501524,20.8837729 C69.3435773,20.1057811 70.3931107,20.1784906 71.0907773,21.1280769 C71.3176707,21.4378194 71.4996707,21.7940961 71.766604,22.0514877 C72.0662973,23.1014132 72.0201907,24.2836699 72.2203907,25.4164842 C72.3247373,26.0127022 72.592884,26.5929242 72.8792307,27.1091618 C73.1049107,27.5177892 73.557484,27.4668926 73.815924,27.1920506 C74.4614173,26.507127 75.2585773,26.8095985 75.9720173,26.6190996 C76.4136707,26.5013102 76.895364,26.5972868 77.459564,26.5972868" id="Fill-1" fill="#231916"></path>
                    <path d="M24.1416933,35.2556815 C24.7143867,35.443272 25.2713067,35.290582 25.73844,34.6376506 C25.88404,34.4355181 26.1837333,34.266832 26.3997067,34.2842823 C27.4540933,34.3628086 27.9831067,33.3550547 28.6880533,32.7413864 C29.0569067,32.4200103 29.1479067,31.8121587 28.9901733,31.3046463 C28.81788,30.7476914 28.3458933,30.7971339 27.9321467,30.8291261 C27.7780533,30.8407596 27.6227467,30.8814769 27.4722933,30.9251026 C26.15704,31.3002837 25.0893067,32.2934957 23.90752,32.9958697 C23.8056,33.0569457 23.7522133,33.2256317 23.6697067,33.3390586 C23.4719333,33.6124464 23.2329067,33.8567504 23.0824533,34.1635845 C22.9708267,34.3933466 22.8980267,34.7278104 22.9526267,34.9662976 C22.9878133,35.1102624 23.2935733,35.1960597 23.4901333,35.2469563 C23.6697067,35.2920362 23.86384,35.2556815 24.1416933,35.2556815" id="Fill-4" fill="#231916"></path>
                    <path d="M6.86989333,47.0200813 C6.96938667,47.0346232 7.09678667,47.1000618 7.14774667,47.0491651 C7.88788,46.3322493 8.91193333,46.399142 9.67026667,45.7084016 C9.95904,45.4466474 10.35216,45.3535792 10.6918933,45.1703512 C11.20028,44.8984176 11.7814667,44.832979 12.1927867,44.2818409 C12.3044133,44.1335135 12.6150267,44.2236733 12.80916,44.1306051 C13.3563733,43.8630341 13.8878133,43.5518374 14.4301733,43.2697244 C14.68376,43.1373931 14.9409867,42.9657987 15.2103467,42.9250813 C15.9225733,42.8189254 16.6432933,42.7840249 17.35916,42.6996818 C17.5751333,42.6735064 17.7947467,42.6007969 17.9973733,42.5062745 C18.80424,42.1383643 19.6062533,41.7573665 20.4070533,41.3690977 C20.5465867,41.3007507 20.67156,41.1815071 20.7637733,41.1146143 C20.5708533,40.4035153 20.1935067,40.4049695 19.8113067,40.3642521 C18.8175867,40.256642 17.8202267,40.1679364 16.8374267,39.9759833 C16.4831333,39.9061822 16.21984,39.5368178 16.08152,39.0627518 C15.8983067,38.4359957 15.64472,37.8368693 15.36808,37.0821445 C15.4105467,36.978897 15.4760667,36.6662461 15.6350133,36.4582969 C16.2028533,35.7166598 16.8180133,35.0288278 17.3822133,34.2828281 C17.5836267,34.0138029 17.6928267,33.6429844 17.8481333,33.3128832 C18.6319467,32.8824428 19.4242533,32.4447315 20.2845067,31.9721197 C20.4568,31.7030945 20.49684,31.2973754 20.2202,31.0370753 C19.9993733,30.8262177 19.6329467,30.6386271 19.383,30.7084283 C18.5142533,30.9454613 17.53024,30.928011 16.9490533,31.9764822 C16.0657467,32.257141 15.3850667,33.2837994 14.36708,33.0467663 C13.9545467,32.952244 13.56264,32.731207 13.16588,32.5523416 C13.0858,32.5130785 13.0360533,32.3560259 12.9559733,32.3327589 C12.03384,32.0768214 12.0350533,31.2348452 12.1345467,30.392869 C12.2146267,29.728304 12.3602267,29.0681016 12.5373733,28.429712 C12.7096667,27.8015018 13.0676,27.2881726 13.60996,27.1122156 C14.2336133,26.9115373 14.6594933,26.4723718 15.0125733,25.6972884 C15.7260133,25.8441616 16.4467333,26.076832 17.1759467,26.1204577 C18.22184,26.1844421 19.2762267,26.3865746 20.3245467,25.9517717 C20.7455733,25.7758146 21.2478933,25.8746996 21.7138133,25.8601577 C22.4709333,25.8354364 22.46244,25.8368906 22.6565733,25.0239982 C22.74272,24.6619048 22.90288,24.3245327 22.97932,23.9609851 C23.19772,22.9256016 22.6784133,22.3119332 21.80724,22.4762567 C20.8838933,22.6478512 19.9484133,22.7234691 19.0287067,22.9081513 C18.6780533,22.9779524 18.35288,23.2295273 17.9476267,23.4345682 C16.54016,22.7191065 15.0514,21.9614734 13.5104667,21.1776648 C13.7106667,20.2455288 13.4837733,19.4704453 12.9268533,18.8175138 C12.84192,18.7186289 12.7739733,18.5688473 12.75092,18.4306992 C12.5737733,17.290614 12.5774133,17.2891598 12.1345467,16.6493161 C12.7060267,16.2712266 13.34424,15.992022 13.8162267,15.4917805 C14.1244133,15.1674961 14.44352,15.0278938 14.7868933,14.8911999 C14.9579733,14.8243072 15.1945733,14.7894066 15.3377467,14.8795664 C15.82308,15.1878548 16.2465333,14.9420966 16.69304,14.7748647 C17.3166933,14.5407401 17.9464133,14.3313366 18.63316,14.0899411 C18.5045467,13.4573683 18.7617733,13.0531033 19.23376,13.0792788 C20.0612533,13.1243587 20.4689333,12.6851932 20.5016933,11.7923203 C21.1144267,11.4709442 21.55244,11.7661449 22.0062267,12.0322617 C22.8434267,12.5266864 23.2753733,12.2925618 23.33968,11.1699268 C23.4585867,9.12242685 23.6054,8.10449361 22.48428,5.86794886 C22.6226,4.73804297 23.1164267,3.68375497 22.9866,2.49277308 C22.9417067,2.07687464 23.1224933,1.81657457 23.41612,1.57517898 C23.92936,1.15928054 24.39892,0.664855824 24.9461333,0.145709872 C27.12528,-0.0869605824 27.12528,-0.0869605824 28.5388133,1.3454169 C28.50848,2.09432493 28.8785467,2.86795419 28.5254667,3.70265945 C28.4381067,3.91351705 28.6674267,4.31778196 28.7390133,4.58826136 C28.51576,5.36916158 28.26824,6.1035277 28.1020133,6.86261506 C27.8217333,8.14084837 28.4526667,9.12824361 29.5446667,9.16459837 C29.85528,9.17186932 30.16832,9.0991598 30.4789333,9.05262571 C30.72888,9.01772514 30.9751867,8.94792401 31.2251333,8.92901953 C31.3768,8.91738601 31.5308933,8.97119105 31.6631467,8.99009553 C31.9046,9.8073505 31.9046,9.8073505 31.71896,11.5087532 C32.0744667,11.6876186 32.4590933,11.8839343 32.9250133,12.1180589 C32.8607067,12.4830607 32.89832,12.9920273 32.7138933,13.1679844 C32.1654667,13.6856761 32.5428133,14.6018161 32.0295733,15.1165994 C31.91188,15.2372972 31.9761867,15.6153867 31.9494933,15.9789343 C31.23484,16.6973043 30.4752933,17.4680252 29.7048267,18.2242042 C29.5398133,18.3885277 29.3481067,18.52813 29.1515467,18.6328317 C28.76328,18.8407809 28.4878533,19.131619 28.3058533,19.6245895 C28.1784533,19.9692326 27.90788,20.2833377 27.63852,20.5014663 C27.0282133,20.9900742 26.9493467,21.1471268 27.1301333,22.0719918 C27.1968667,22.4122724 27.1046533,22.8747049 27.6433733,22.9415977 C27.7283067,22.7089272 27.8229467,22.4544439 27.8957467,22.2552198 C28.6225333,21.8335046 29.3214133,21.4263313 30.0239333,21.0278832 C30.1052267,20.9813491 30.2059333,20.9595362 30.2981467,20.9609904 C31.4083467,20.9697156 32.3256267,20.2847919 33.29872,19.7874588 C33.6797067,19.5911431 34.1080133,19.5271587 34.64552,19.3628352 C34.20508,21.3914308 33.3921467,22.7481903 31.8779067,23.433114 C31.5612267,23.5770788 31.2760933,23.822837 30.9776133,24.0235153 C30.6754933,24.2256477 30.38308,24.5761076 30.07004,24.602283 C29.37116,24.6575423 29.0010933,25.2566687 28.5109067,25.6812923 C27.9867467,26.1364538 27.41284,26.5058182 26.80132,26.9595256 C26.8365067,28.0501683 26.2504667,28.5576808 25.4156933,28.8383395 C25.06504,28.9546747 24.74472,29.2033413 24.3892133,29.4025653 C24.5311733,30.0293214 24.8599867,30.0584052 25.207,29.9071694 C25.4702933,29.7937425 25.70204,29.5843391 25.9507733,29.4200156 C26.7722,28.8834194 27.5996933,28.6725618 28.5533733,28.9779418 C29.1284933,29.1597156 29.77884,29.0099339 30.45588,29.0099339 C30.7737733,29.4927251 31.1499067,30.0685845 31.57336,30.7098825 C30.8829733,31.4980536 30.7191733,32.6105092 30.5092667,33.6895185 C29.82252,34.2900991 29.00716,34.7467148 28.89068,35.93188 C28.88704,35.9653263 28.86884,36.0176772 28.8457867,36.0293107 C28.1614667,36.3608661 27.9382133,37.2290178 27.43104,37.7554347 C26.87048,38.3342024 26.2274133,38.6730288 25.4375333,38.5421516 C25.0444133,38.4767131 24.6221733,38.5392433 24.2290533,38.6381282 C23.7594933,38.7573718 23.5847733,39.0976523 23.6939733,39.5164592 C23.8153067,39.9832543 24.12228,40.2057454 24.4947733,40.1054063 C25.9483467,39.714229 27.4638,39.6429737 28.84336,38.8693445 C29.0338533,38.7631886 29.2753067,38.6861165 29.4779333,38.7239254 C30.45588,38.9013366 31.39136,38.5945025 32.3401867,38.430179 C33.29872,38.2629471 34.25604,38.0826275 35.217,37.9328459 C35.4293333,37.8993995 35.65744,37.9270291 35.86856,37.9822884 C36.8343733,38.2440426 37.7965467,38.5247013 38.78784,38.8053601 C38.7672133,39.9076364 39.5510267,39.7098665 40.10188,39.8567397 C40.5483867,40.5881974 40.7134,41.4883413 41.37952,42.0322085 C41.79084,42.3695806 41.7144,43.5300245 41.36496,43.9866403 C41.15748,44.2585739 40.9439333,44.5246907 40.7522267,44.8111662 C40.3251333,45.4568267 39.8373733,45.8989006 39.0911733,45.871271 C38.4748,45.8480039 37.8511467,46.199918 37.1813867,45.7156726 C37.2056533,45.1020043 36.8210267,44.9405891 36.3259867,44.755907 C35.1539067,44.3196499 34.0315733,44.481065 32.8789067,44.8242539 C32.24676,45.0118445 31.5782133,45.023478 30.9302933,45.1470842 C30.72524,45.1848931 30.5383867,45.344854 30.33576,45.4117468 C30.2168533,45.4524641 30.08096,45.4190178 29.7885467,45.4190178 C30.57236,44.3981761 31.2955067,43.5998256 32.15212,42.9919741 C32.71996,42.5891634 33.0487733,41.9813118 33.3812267,41.1771445 C33.1106533,41.1160685 32.9140933,41.0215462 32.7260267,41.0419048 C32.2334133,41.0913473 31.74808,41.2309496 31.2542533,41.264396 C29.8285867,41.3531016 28.4004933,41.4039982 26.9736133,41.4810703 C26.30264,41.5188793 25.7445067,41.9405945 25.1390533,42.2285241 C24.1380533,42.7025902 23.387,43.785962 22.19672,43.8295877 C21.658,43.8484922 21.1204933,44.2236733 20.5975467,44.4839734 C19.15004,45.2037976 17.7328667,46.0268693 16.2586667,46.6594421 C14.9798133,47.2091261 13.84292,48.0714609 12.5846933,48.7142131 C12.5216,49.0035969 12.45972,49.2857099 12.4306,49.423858 C11.8312133,49.8702944 11.3386,50.2600174 10.8241467,50.6075689 C10.6130267,50.7500795 10.34852,50.7806175 10.1179867,50.8940444 C9.80494667,51.0467344 9.36572,51.1339858 9.21890667,51.4219155 C8.84277333,52.1664609 8.27250667,52.3409638 7.63793333,52.4471197 C7.45714667,52.7728583 7.28485333,53.0826009 7.07858667,53.4519652 C6.06788,53.3152713 5.63957333,54.4451772 4.90308,54.962869 C4.58761333,55.1824517 4.31461333,55.5154613 3.98337333,55.6725138 C3.32453333,55.9909815 2.59532,56.124767 2.275,56.9143924 C1.82242667,56.704989 1.53850667,56.552299 1.24366667,56.4417805 C0.681893333,56.2323771 0.485333333,55.7466776 0.43316,55.0908377 C0.4004,54.6720309 0.293626667,54.260495 0.191706667,53.6889982 C0.344586667,53.2876417 0.576333333,52.7539538 0.388266667,52.0501257 C0.228106667,51.4524535 0.492613333,51.0220131 1.02890667,50.7486254 C1.55670667,50.4796001 2.02990667,50.1887621 2.18036,49.4296747 C2.22646667,49.1955501 2.43758667,49.0094137 2.57226667,48.8000103 C2.68632,48.6225991 2.91685333,48.423375 2.89744,48.2677766 C2.78338667,47.3269155 3.47013333,47.0564361 3.84869333,46.5314734 C3.88873333,46.4762141 3.93484,46.375875 3.97488,46.3787834 C4.75990667,46.4311342 5.2598,45.6676843 6.03026667,45.3274038 C6.29477333,45.8596374 6.56049333,46.3933253 6.86989333,47.0200813" id="Path" fill="#231916"></path>
                    <path d="M19.757556,72.6471323 C19.3984093,73.3509604 18.9773827,73.6068979 18.4495827,73.7014203 C17.893876,73.8017594 17.3503027,73.98935 16.7970227,74.1027768 C16.6223027,74.1376774 16.3966227,74.127498 16.2570893,74.019888 C15.815436,73.6854242 15.4029027,73.2957012 15.0352627,72.9786877 C15.1517427,71.491051 15.6492093,70.3669618 16.252236,69.2952235 C16.6538493,68.5826703 17.103996,67.9050176 17.4631427,67.1633805 C17.6148093,66.8492754 17.5856893,66.4115641 17.653636,65.9098684 C16.3966227,66.1410847 15.724436,64.9093855 14.712516,64.6985279 C14.450436,64.6432686 14.177436,64.4760368 13.9711693,64.2724501 C13.332956,63.6471483 13.3632893,63.3592186 14.1131293,62.7440961 C14.0706627,62.4488954 14.024556,62.1289735 13.977236,61.8090517 C16.1005693,60.4421127 18.0807293,58.7668855 20.4394493,57.9728975 C20.4261027,57.8914629 20.4139693,57.8056657 20.3994093,57.7227768 C19.764836,57.6529757 19.127836,57.5846287 18.3646493,57.5002857 C18.316116,57.2588901 18.137756,56.8967967 18.2190493,56.6655804 C18.381636,56.2060563 18.4556493,55.5385829 18.974956,55.4571483 C19.8643293,55.3160918 20.106996,54.2516245 20.7609827,53.77465 C21.0267027,53.5826969 20.976956,53.05628 20.7888893,52.2375708 C20.4430893,52.0616138 20.092436,51.7795009 19.6896093,52.1939451 C19.6240893,52.2608379 19.480916,52.33791 19.4348093,52.3015552 C18.6849693,51.6980662 17.4946893,52.1110563 17.042116,50.8182811 C16.9717427,50.6205112 16.8649693,50.4387374 16.758196,50.2089753 C17.173156,49.6912836 17.8404893,49.3480946 17.4109693,48.4203212 C17.722796,48.3199821 17.8963027,48.24291 18.0734493,48.212372 C18.7031693,48.113487 19.3110493,47.9622512 19.833996,47.4838226 C19.9783827,47.3543997 20.172516,47.2656941 20.3533027,47.2366103 C21.952476,46.9995772 23.543156,46.4891564 25.170236,46.9937605 C25.2915693,47.0315694 25.421396,47.0577449 25.5463693,47.0446571 C26.458796,46.9385012 27.201356,47.2337019 27.6296627,48.4174128 C26.8713293,48.9787303 26.626236,50.3194938 25.541516,50.5376223 C25.122916,51.5919103 24.180156,51.9365534 23.5383027,52.6883699 C23.390276,52.8628727 23.324756,53.1362605 23.2204093,53.3645684 C22.909796,53.4910829 22.596756,53.6175975 22.2958493,53.7382953 C22.309196,54.286525 22.6125293,54.3519636 22.873396,54.4261273 C23.1779427,54.5104703 23.4982627,54.5162871 23.8040227,54.5933592 C24.8632627,54.8565676 25.7975293,55.9922903 25.9504093,57.2283521 C25.9758893,57.4275762 25.887316,57.6558841 25.821796,57.8565623 C25.6009693,58.5371234 25.304916,59.1944174 25.1581027,59.893883 C24.9979427,60.6515162 24.485916,61.0892275 24.1886493,61.7145293 C24.027276,62.0606266 23.765196,62.3514647 23.510396,62.6190357 C23.0287027,63.1280023 22.6137427,63.6427857 22.702316,64.5109373 C22.716876,64.6679899 22.5178893,64.974824 22.381996,65.0082704 C21.8129427,65.1507811 21.6236627,65.7586326 21.3166893,66.1977981 C21.1601693,66.4231976 21.0631027,66.8216458 21.1104227,67.1008503 C21.1783693,67.4949359 21.533876,67.5065694 21.8202227,67.4556728 C22.9947293,67.2477235 24.1971427,67.2840783 25.341316,66.8056497 C25.6919693,66.6616848 26.080236,66.571525 26.4490893,66.5802502 C27.117636,66.5977005 27.681836,66.3621216 28.264236,65.7368198 C28.1501827,65.3921767 28.020356,64.9995453 27.8978093,64.6287267 C28.0434093,64.2215534 28.286076,63.805655 28.315196,63.3708521 C28.337036,63.056747 28.085876,62.7062871 27.9305693,62.3907278 C27.8553427,62.239492 27.6769827,62.1507864 27.619956,61.995188 C27.4027693,61.3873365 27.2147027,60.7634888 27.052116,60.2559764 C27.106716,59.0708113 27.1564627,57.9569015 27.2110627,56.7571944 C27.3384627,56.4445435 27.492556,56.0024696 27.6915427,55.592388 C28.118636,54.7256905 28.5602893,53.8837143 29.534596,53.781921 C29.803956,53.7571998 30.1194227,53.6306852 30.3123427,53.4183734 C30.8098093,52.8715978 31.398276,52.7858006 32.0182893,52.7436291 C32.362876,52.7218162 32.7038227,52.64329 33.0314227,52.5938475 C33.7230227,52.9472157 33.2340493,53.66704 33.4245427,54.2618038 C33.5580093,54.3592346 33.7521427,54.4741156 33.924436,54.6253514 C34.3151293,54.9787196 34.641516,55.4353354 34.6390893,56.0257367 C34.630596,57.3926756 34.9594093,58.7828816 34.4692227,60.1236451 C34.4109827,60.283606 34.4243293,60.4813759 34.3927827,60.7504011 C33.527676,60.4421127 32.9113027,61.1357615 32.2112093,61.4687711 C31.6009027,61.7596092 31.4844227,62.1725993 31.682196,62.9185989 C31.8981693,63.7358539 32.0947293,64.5691049 32.391996,65.3456426 C32.5473027,65.7499075 32.9028093,66.0436539 33.298356,66.5569831 C33.298356,66.5657083 33.291076,66.8245542 33.3262627,67.0761291 C33.3578093,67.3117079 33.418476,67.5443784 33.4937027,67.7668695 C33.6271693,68.1522299 33.7812627,68.527411 33.906236,68.8560581 C33.4961293,69.2705023 33.1915827,69.5904242 32.876116,69.8899874 C32.6856227,70.070307 32.479356,70.2244512 32.2730893,70.375687 C32.1675293,70.4513049 31.9818893,70.4556674 31.9382093,70.5574608 C31.460156,71.6655538 30.5198227,71.5419476 29.7190227,71.7426259 C28.8041693,71.972388 27.871116,72.1047193 26.946556,72.2763137 C26.9150093,72.2835847 26.8822493,72.3024892 26.8531293,72.293764 C25.4626493,71.9447583 24.140116,72.683487 22.7666227,72.6500407 C21.7692627,72.6267736 20.7682627,72.6471323 19.757556,72.6471323" id="Fill-6" fill="#231916"></path>
                </g>
                <g>
                    <g id="border" transform="translate(0.000000, 1.181818)" stroke="#FFFFFF" stroke-linecap="round" stroke-linejoin="round">
                        <path d="M56.0336442,28.8771889 L44.1823195,52.5473 C44.1823195,52.5473 63.6610727,51.8727444 74.5003714,43.3346333 C79.036787,39.7639667 83.1898779,33.6250778 85.9402935,27.9411889 C90.0579818,19.4045222 92.6728909,9.81052222 93.8436182,-0.000144444444 C93.8436182,-0.000144444444 78.6266052,13.2786333 56.0336442,28.8771889" id="Fill-10-Copy" stroke-width="4" fill="#B7851C"></path>
                        <path d="M35.8848052,30.9493889 C37.4889091,28.3725 42.6003117,32.0659444 44.7635325,37.1662778 C46.9255325,42.2695 40.0964935,55.0701667 40.0964935,55.0701667 C40.0964935,55.0701667 33.109974,50.3323889 32.2114805,45.7968333 C31.3178701,41.2641667 34.2758182,33.5291667 35.8848052,30.9493889" id="Fill-16-Copy" stroke-width="5" fill="#050302"></path>
                        <path d="M31.2853974,46.0539444 C30.7922026,43.5536111 31.3464364,40.4538333 31.9910078,38.0603889 C13.0689299,36.9221667 0.000488311688,30.9161667 0.000488311688,30.9161667 C4.1193974,45.5989444 15.2834234,54.9892778 28.3128,54.2959444 C29.805813,54.2193889 33.1214494,53.5838333 35.799839,52.9208333 C33.222774,50.4696111 31.7029039,48.1613889 31.2853974,46.0539444" id="Fill-18-Copy" stroke-width="5" fill="#B7851C"></path>
                    </g>
                    <path d="M20.3604,62.6030889 C18.7392052,65.6696444 17.1143481,68.7362 15.4955948,71.8056444 C12.7341922,77.0172 9.97889351,82.2359778 7.21627013,87.4489778 C6.26528312,89.2458667 5.32284156,91.0442 4.38162078,92.8497556 C15.5285558,91.6104222 27.9670753,89.6604222 33.4764519,87.9704222 C33.8866338,80.1386444 34.3273351,73.5678667 35.9924779,64.3826444 L20.3604,62.6030889 Z" id="Fill-8" fill="#AA3634"></path>
                    <path d="M56.0336442,28.8771889 L44.1823195,52.5473 C44.1823195,52.5473 63.6610727,51.8727444 74.5003714,43.3346333 C79.036787,39.7639667 83.1898779,33.6250778 85.9402935,27.9411889 C90.0579818,19.4045222 92.6728909,9.81052222 93.8436182,-0.000144444444 C93.8436182,-0.000144444444 78.6266052,13.2786333 56.0336442,28.8771889" id="Fill-10" fill="#B7851C"></path>
                    <path d="M35.8848052,30.9493889 C37.4889091,28.3725 42.6003117,32.0659444 44.7635325,37.1662778 C46.9255325,42.2695 40.0964935,55.0701667 40.0964935,55.0701667 C40.0964935,55.0701667 33.109974,50.3323889 32.2114805,45.7968333 C31.3178701,41.2641667 34.2758182,33.5291667 35.8848052,30.9493889" id="Fill-16" fill="#050302"></path>
                    <path d="M31.2853974,46.0539444 C30.7922026,43.5536111 31.3464364,40.4538333 31.9910078,38.0603889 C13.0689299,36.9221667 0.000488311688,30.9161667 0.000488311688,30.9161667 C4.1193974,45.5989444 15.2834234,54.9892778 28.3128,54.2959444 C29.805813,54.2193889 33.1214494,53.5838333 35.799839,52.9208333 C33.222774,50.4696111 31.7029039,48.1613889 31.2853974,46.0539444" id="Fill-18" fill="#B7851C"></path>
                    <path d="M82.0837299,99.9780889 L60.7249766,53.3600889 L42.2936519,58.8619778 C42.6342494,60.4147556 42.9223532,61.9112 43.1640675,63.3888667 C44.6180156,64.9185333 46.4381974,67.1993111 46.9008727,69.4165333 L46.9069766,69.4454222 L46.9118597,69.4772 C46.9374961,69.6360889 49.4584052,85.5712 50.2482494,92.6330889 L50.2604571,92.7414222 L50.2543532,92.8512 C50.2055221,93.7886444 50.0944312,94.7376444 49.9271844,95.7039778 C59.9033922,98.0613111 74.181626,100.3132 82.0837299,99.9780889" id="Fill-20" fill="#AA3634"></path>
                    <path d="M45.9764987,69.6856333 C45.2855377,66.3691889 40.7295896,62.5081889 40.7295896,62.5081889 C40.7295896,62.5081889 36.464187,82.1006333 35.2336416,89.4875222 C34.230161,95.5079667 42.1481351,102.852967 46.2438494,103.774522 C47.9028883,100.307856 49.1016935,96.5869667 49.3043429,92.7794111 C48.5108364,85.6655222 45.9764987,69.6856333 45.9764987,69.6856333" id="Fill-13" fill="#050302"></path>
                </g>
                <g id="tainan" transform="translate(99.000000, 85.090909)" fill="#7C6755">
                    <polygon id="Fill-22" points="13.0779031 0.248920455 13.0779031 1.58880682 8.58584154 1.58880682 8.58584154 16.3659659 5.40396462 16.3659659 5.40396462 1.58880682 0.910687692 1.58880682 0.910687692 0.248920455"></polygon>
                    <path d="M17.8384431,10.5840682 L21.7483354,10.5840682 L19.8255969,5.48895455 L17.8384431,10.5840682 Z M21.0823046,0.249068182 L27.1616585,16.3675909 L23.9080738,16.3675909 L22.2855354,12.0569091 L17.2465508,12.0569091 L15.5413662,16.3675909 L13.37312,16.3675909 L19.7064892,0.249068182 L21.0823046,0.249068182 Z" id="Fill-24"></path>
                    <polygon id="Fill-26" points="29.8352615 16.367 33.0159231 16.367 33.0159231 0.248477273 29.8352615 0.248477273"></polygon>
                    <polygon id="Fill-28" points="37.2775477 0.248920455 39.3096708 0.248920455 46.7101477 10.3490341 46.7101477 0.248920455 48.7058092 0.248920455 48.7058092 16.3703977 47.3299938 16.3703977 39.29144 5.21994318 39.29144 16.3659659 37.2775477 16.3659659"></polygon>
                    <polygon id="Fill-29" points="67.5695508 0.248920455 69.6016738 0.248920455 77.0033662 10.3490341 77.0033662 0.248920455 78.9978123 0.248920455 78.9978123 16.3703977 77.6219969 16.3703977 69.5834431 5.21994318 69.5834431 16.3659659 67.5695508 16.3659659"></polygon>
                    <path d="M55.7088554,10.5840682 L59.6187477,10.5840682 L57.6960092,5.48895455 L55.7088554,10.5840682 Z M58.9539323,0.249068182 L65.0320708,16.3675909 L61.7784862,16.3675909 L60.1559477,12.0569091 L55.1169631,12.0569091 L53.4117785,16.3675909 L51.2423169,16.3675909 L57.5769015,0.249068182 L58.9539323,0.249068182 Z" id="Fill-30"></path>
                </g>
            </g>
        </g>
    </g>
</svg>